<?xml version="1.0" encoding="UTF-8"?>
<svg width="65px" height="66px" viewBox="0 0 65 66" version="1.1" xmlns="http://www.w3.org/2000/svg" xmlns:xlink="http://www.w3.org/1999/xlink">
    <!-- Generator: Sketch 52.5 (67469) - http://www.bohemiancoding.com/sketch -->
    <title>g20</title>
    <desc>Created with Sketch.</desc>
    <g id="u会议" stroke="none" stroke-width="1" fill="none" fill-rule="evenodd">
        <g id="U会议-Copy-9" transform="translate(-474.000000, -74.000000)" fill="#FFCE4D" fill-rule="nonzero">
            <g id="g20" transform="translate(506.500000, 107.000000) scale(-1, 1) rotate(-180.000000) translate(-506.500000, -107.000000) translate(474.000000, 74.000000)">
                <path d="M55.6222091,26.4896866 L48.6683785,12.7453216 C48.647859,14.7597107 48.1373794,16.7653745 47.1570033,18.6390111 C46.4634442,19.9645632 45.5065515,21.1495924 44.3510756,22.1527687 L48.4159886,30.1873637 C49.1904857,31.7181891 50.5272172,32.8885232 51.7421996,33.0995369 C52.6756089,33.2616433 53.5232922,33.1514293 54.2624502,32.7721098 C55.0013802,32.3927902 55.5882379,31.7668669 56.0066077,30.9113314 C56.5510585,29.7974819 56.3967062,28.020512 55.6222091,26.4896866 Z M36.3651142,25.5873101 L27.6463786,26.978072 L26.2654162,35.758907 L34.1307686,39.7948031 L40.3725725,33.5087061 L36.3651142,25.5873101 Z M39.9617266,12.0564846 C39.8319977,11.2312579 39.4222917,10.4756037 38.7435522,9.81064636 C37.8598458,8.94477823 36.1343838,8.54364548 34.4490488,8.81229191 L19.3202494,11.225288 C21.2164792,11.8675137 22.9528849,12.9763117 24.4193452,14.4945084 C25.4569479,15.568635 26.2802358,16.8512495 26.8707414,18.2679576 L35.71419,16.857449 C37.399297,16.588573 38.917512,15.669894 39.492286,14.5714286 C39.9336832,13.7278328 40.0916834,12.8817114 39.9617266,12.0564846 Z M18.2094604,20.5787762 C17.5491885,19.8952202 16.7990868,19.4823773 15.9796747,19.3517278 C15.1600347,19.2217672 14.3198752,19.3801998 13.4826796,19.8247292 C12.3917261,20.403582 11.4795204,21.9325705 11.2127669,23.6296353 L8.81654523,38.8653324 C10.0089562,37.2479431 11.5923776,35.9276721 13.4790317,34.9920018 C14.8137111,34.3302591 16.2797154,33.9415254 17.7995264,33.8136313 L19.2007803,24.9037542 C19.4675338,23.206919 19.0692275,21.4687536 18.2094604,20.5787762 Z M15.1333594,47.1146148 C15.3428863,48.338219 16.5049739,49.6844361 18.0250129,50.4644292 L31.6725325,57.4673759 C30.5136367,55.8256477 29.7557832,53.9008075 29.4552865,51.8046764 C29.2427957,50.3216103 29.3253297,48.7965252 29.6743891,47.3008304 L21.6966355,43.2070721 C20.1768245,42.4268493 18.4123755,42.2711722 17.3059184,42.8199457 C16.4566391,43.2412843 15.8348983,43.8320768 15.4582514,44.57648 C15.0818326,45.3211129 14.9723953,46.1750411 15.1333594,47.1146148 Z M38.0303856,50.5581111 C38.1655863,51.5018178 38.5317454,52.279974 39.1181471,52.8707665 C39.7047768,53.4615591 40.47745,53.8303165 41.4145072,53.9664766 C42.6342775,54.1439669 44.2651217,53.4468639 45.4714403,52.231985 L56.3023165,41.3242509 C54.393547,41.9269833 52.341597,42.0576327 50.2695835,41.6978302 C48.8031232,41.4431901 47.3884176,40.8930389 46.0840614,40.0962841 L39.7526556,46.4726187 C38.546337,47.6874976 37.8541459,49.3292258 38.0303856,50.5581111 Z M58.1958104,40.5463243 C58.1242201,40.5830623 58.0514899,40.6165857 57.9796717,40.6517164 L63.6011027,46.3130382 L51.5976511,58.4016685 C48.4132527,61.6084344 44.1454246,63.1792124 40.1764973,62.6021966 C37.3874413,62.1967012 34.9029858,60.9650607 32.9919363,59.04045 C32.9353937,58.9835062 32.881359,58.9242662 32.8259564,58.8661743 L29.2168043,66 L14.0916527,58.2386438 C10.0791785,56.1797099 7.27689874,52.5754851 6.59542334,48.5976809 C6.11640701,45.8010026 6.51197737,43.0408327 7.73881549,40.615208 C7.7752946,40.5433393 7.81450964,40.4733076 7.85212873,40.4023574 L4.54747351e-13,39.1500517 L2.65567931,22.2648196 C3.35995415,17.7855421 5.89753234,13.987754 9.44375796,12.1053921 C11.3431797,11.0976235 13.3791701,10.5823734 15.4217723,10.5823734 C16.0601568,10.5823734 16.6994532,10.6324289 17.3348737,10.7341472 C17.4142158,10.7467759 17.4924179,10.7626191 17.571076,10.7766255 L16.3273663,2.86900616 L33.0938499,0.194252038 C33.9118939,0.0640618423 34.7272021,-9.09494702e-13 35.5308825,-9.09494702e-13 C39.0985396,0.000229612337 42.4407102,1.25965329 44.7849491,3.55692473 C46.8049799,5.53595347 48.0963404,8.00313804 48.5190421,10.6914393 C48.5315818,10.7711148 48.5407016,10.8512495 48.5516453,10.930925 L55.6352048,7.29593203 L63.341645,22.5284145 C65.3862992,26.5695917 65.5497712,31.1441583 63.7791664,34.7656041 C62.5343167,37.3120049 60.6034317,39.3110099 58.1958104,40.5463243 Z" id="path22"></path>
            </g>
        </g>
    </g>
</svg>